<?xml version="1.0" encoding="utf-8"?>
<!-- Generator: Adobe Illustrator 21.1.0, SVG Export Plug-In . SVG Version: 6.00 Build 0)  -->
<svg version="1.1" id="Layer_1" xmlns="http://www.w3.org/2000/svg" xmlns:xlink="http://www.w3.org/1999/xlink" x="0px" y="0px"
	 viewBox="0 0 50 50" style="enable-background:new 0 0 50 50;" xml:space="preserve">
<style type="text/css">
	.st0{fill:#5B8F21;}
</style>
<g>
	<path class="st0" d="M24.1,25c0.1,0.2,0.3,0.4,0.4,0.5c4.6,4.7,9.3,9.3,14,13.9c0.5,0.5,0.8,1.1,0.6,1.8c-0.1,0.3-0.2,0.6-0.5,0.8
		c-1.5,1.5-3,3-4.5,4.5c-0.8,0.8-1.8,0.8-2.7-0.1c-2.6-2.6-5.1-5.1-7.7-7.7c-4.1-4.1-8.3-8.3-12.4-12.4c-0.5-0.5-0.8-1.1-0.6-1.9
		c0.1-0.4,0.4-0.7,0.7-1c3.4-3.4,6.9-6.9,10.3-10.3c3.2-3.2,6.5-6.5,9.7-9.7C32,3,32.6,2.7,33.4,2.9c0.4,0.1,0.6,0.4,0.9,0.6
		c1.4,1.4,2.8,2.8,4.2,4.2c0.9,0.9,0.9,1.8,0,2.8c-3.9,3.9-7.8,7.8-11.7,11.7c-0.8,0.8-1.6,1.6-2.4,2.4C24.3,24.8,24.2,24.9,24.1,25
		z"/>
</g>
</svg>
